{
	"patcher" : 	{
		"fileversion" : 1,
		"appversion" : 		{
			"major" : 8,
			"minor" : 1,
			"revision" : 6,
			"architecture" : "x64",
			"modernui" : 1
		}
,
		"classnamespace" : "dsp.gen",
		"rect" : [ 42.0, 85.0, 912.0, 913.0 ],
		"bglocked" : 0,
		"openinpresentation" : 0,
		"default_fontsize" : 12.0,
		"default_fontface" : 0,
		"default_fontname" : "Arial",
		"gridonopen" : 1,
		"gridsize" : [ 15.0, 15.0 ],
		"gridsnaponopen" : 1,
		"objectsnaponopen" : 1,
		"statusbarvisible" : 2,
		"toolbarvisible" : 1,
		"lefttoolbarpinned" : 0,
		"toptoolbarpinned" : 0,
		"righttoolbarpinned" : 0,
		"bottomtoolbarpinned" : 0,
		"toolbars_unpinned_last_save" : 0,
		"tallnewobj" : 0,
		"boxanimatetime" : 200,
		"enablehscroll" : 1,
		"enablevscroll" : 1,
		"devicewidth" : 0.0,
		"description" : "",
		"digest" : "",
		"tags" : "",
		"style" : "",
		"subpatcher_template" : "",
		"assistshowspatchername" : 0,
		"boxes" : [ 			{
				"box" : 				{
					"id" : "obj-3",
					"maxclass" : "newobj",
					"numinlets" : 0,
					"numoutlets" : 1,
					"outlettype" : [ "" ],
					"patching_rect" : [ 831.0, 14.0, 28.0, 22.0 ],
					"text" : "in 3"
				}

			}
, 			{
				"box" : 				{
					"code" : "//G(p_moins, gamma, zeta)\r\n//traduit de ligne_a_retard_jeff.ipynb\r\n\r\n\r\n\r\n// change of variable\r\np_moins = in1;\r\ngamma = in2;\r\nzeta= in3;\r\n\r\nY = gamma + 2 * p_moins;\r\n\r\n//extra useful variables\r\npsi = 1 / pow(zeta, 2);\r\neta = pow(3 + psi, 0.5);\r\nmu = (9 / 2) * (3 * Y - 1);\r\n\r\n//Case 1 : 1<= Y\r\nif (1 <= Y){\r\n\t\r\n\tX = Y;\r\n\t\t\r\n};\r\n\r\n//Case 2 : 0 < Y < 1\r\nif ((0 < Y) && (Y < 1)){\r\n\t//X = pow(- 2/3 * eta * sin(1/3 * asin((psi - mu) / (zeta * pow(eta, 3))) + 1 / (3 * zeta), 2);\r\n\t//X = pow(- 2 / 3 * eta * sin(1 / 3 * asin((psi - mu)/(zeta * pow(eta, 3)))) + 1 / (3 * zeta)), 2)\r\n\tX = pow(- 2/3 * eta * sin(1 / 3 * asin((psi - mu) / (zeta * pow(eta, 3)))) + 1 / (3 * zeta), 2);\r\n};\r\n\r\n//Case 3 Y < 0 :\r\nq = 1 / 9 * (3 - psi);\r\nr = - (psi + mu) / (27 * zeta);\r\ndiscr = pow(q, 3) + pow(r, 2);\r\n\r\n//discriminat is positive\r\nif ((discr>0) && (Y < 0)){\r\n\ts1 = pow(r + pow(discr, 1/2), 1/3);\r\n\tX = -pow((s1 - q / s1 - 1 / (3 * zeta)), 2);\r\n};\r\n\r\n//Discriminant is negative\r\nif ((discr<0) && (Y < 0)){\r\n\teta_prime = pow((-3 + psi), 1/2);\r\n\tX=-pow(2 / 3 * eta_prime * cos(1 / 3 * acos(-(psi + mu) / (zeta * pow(eta_prime, 3)))) - 1 / (3 * zeta), 2);\r\n};\r\n\r\nout1 = -X + gamma + p_moins;\r\n//out1 = p_moins;",
					"fontface" : 0,
					"fontname" : "Lucida Console",
					"fontsize" : 12.0,
					"id" : "obj-5",
					"maxclass" : "codebox",
					"numinlets" : 3,
					"numoutlets" : 1,
					"outlettype" : [ "" ],
					"patching_rect" : [ 60.0, 63.0, 790.0, 713.0 ]
				}

			}
, 			{
				"box" : 				{
					"id" : "obj-1",
					"maxclass" : "newobj",
					"numinlets" : 0,
					"numoutlets" : 1,
					"outlettype" : [ "" ],
					"patching_rect" : [ 60.0, 14.0, 28.0, 22.0 ],
					"text" : "in 1"
				}

			}
, 			{
				"box" : 				{
					"id" : "obj-2",
					"maxclass" : "newobj",
					"numinlets" : 0,
					"numoutlets" : 1,
					"outlettype" : [ "" ],
					"patching_rect" : [ 445.5, 14.0, 28.0, 22.0 ],
					"text" : "in 2"
				}

			}
, 			{
				"box" : 				{
					"id" : "obj-4",
					"maxclass" : "newobj",
					"numinlets" : 1,
					"numoutlets" : 0,
					"patching_rect" : [ 60.0, 829.0, 35.0, 22.0 ],
					"text" : "out 1"
				}

			}
 ],
		"lines" : [ 			{
				"patchline" : 				{
					"destination" : [ "obj-5", 0 ],
					"source" : [ "obj-1", 0 ]
				}

			}
, 			{
				"patchline" : 				{
					"destination" : [ "obj-5", 1 ],
					"source" : [ "obj-2", 0 ]
				}

			}
, 			{
				"patchline" : 				{
					"destination" : [ "obj-5", 2 ],
					"source" : [ "obj-3", 0 ]
				}

			}
, 			{
				"patchline" : 				{
					"destination" : [ "obj-4", 0 ],
					"source" : [ "obj-5", 0 ]
				}

			}
 ]
	}

}
